Dactyl Sans.sfdir
StartChar: "
Encoding: 34 34 0
Width: 283
InSpiro: 1
        Flags: H
        LayerCount: 2
        Back
        SplineSet
30 634 m 0
34 634 l 0
34 480 l 0
30 480 l 0
30 634 l 0
Z
179 634 m 0
184 634 l 0
184 480 l 0
179 480 l 0
179 634 l 0
Z
Spiro
30 634 v
34 634 v
34 480 v
30 480 v
179 634 v
184 634 v
184 480 v
179 480 v
0 0 z
EndSpiro
EndSplineSet
        Fore
        SplineSet
-1 660 m 0
61 660 l 0
61 450 l 0
-1 450 l 0
-1 660 l 0
Z
148 660 m 0
211 660 l 0
211 450 l 0
148 450 l 0
148 660 l 0
Z
Spiro
-1 660 v
61 660 v
61 450 v
-1 450 v
148 660 v
211 660 v
211 450 v
148 450 v
0 0 z
EndSpiro
EndSplineSet
        EndChar
StartChar: #
Encoding: 35 35 29
Width: 433
InSpiro: 1
Flags: H
LayerCount: 2
Back
SplineSet
30 430 m 0
 30 434 l 0
 334 434 l 0
 334 430 l 1024
30 230 m 0
 30 234 l 0
 334 234 l 0
 334 230 l 1024
254 634 m 0
 259 634 l 0
 259 30 l 0
 254 30 l 1024
104 634 m 0
 109 634 l 0
 109 30 l 0
 104 30 l 1024
  Spiro
    30 430 v
    30 434 v
    334 434 v
    334 430 v
    30 230 v
    30 234 v
    334 234 v
    334 230 v
    254 634 v
    259 634 v
    259 30 v
    254 30 v
    104 634 v
    109 634 v
    109 30 v
    104 30 v
    0 0 z
  EndSpiro
EndSplineSet
Fore
SplineSet
-1 400 m 0
 -1 460 l 0
 361 460 l 0
 361 400 l 1024
-1 200 m 0
 -1 260 l 0
 361 260 l 0
 361 200 l 1024
223 660 m 0
 286 660 l 0
 286 0 l 0
 223 0 l 1024
73 660 m 0
 136 660 l 0
 136 0 l 0
 73 0 l 1024
  Spiro
    -1 400 v
    -1 460 v
    361 460 v
    361 400 v
    -1 200 v
    -1 260 v
    361 260 v
    361 200 v
    223 660 v
    286 660 v
    286 0 v
    223 0 v
    73 660 v
    136 660 v
    136 0 v
    73 0 v
    0 0 z
  EndSpiro
EndSplineSet
EndChar
StartChar: $
Encoding: 36 36 0
Width: 433
InSpiro: 1
        Flags: H
        LayerCount: 2
        Back
        SplineSet
334 530 m 0
329 530 l 0
318 560 298 586 272 604 c 0
245 622 213 631 182 630 c 0
143 628 106 611 79 583 c 0
53 556 36 519 34 481 c 0
32 458 35 436 43 415 c 0
51 394 64 376 83 363 c 0
111 342 147 337 182 332 c 0
217 328 254 323 283 303 c 0
301 289 316 270 324 248 c 0
333 227 335 203 334 181 c 0
330 142 313 104 286 76 c 0
258 49 220 31 182 30 c 0
149 28 115 37 88 56 c 0
61 75 40 102 30 134 c 0
34 134 l 0
44 103 64 76 90 58 c 0
116 40 149 31 181 33 c 0
219 34 256 51 283 79 c 0
309 106 326 143 329 182 c 0
330 204 327 226 319 247 c 0
311 268 298 286 280 300 c 0
251 320 214 325 180 330 c 0
145 334 108 339 80 360 c 0
61 373 47 392 38 414 c 0
30 435 27 459 30 482 c 0
33 520 50 558 77 585 c 0
104 613 142 630 181 633 c 0
213 634 247 625 274 607 c 0
302 588 323 561 334 530 c 0
Z
179 636 m 0
184 636 l 0
184 28 l 0
179 28 l 0
179 636 l 0
Z
Spiro
334 530 v
329 530 v
182 630 c
34 481 c
83 363 c
283 303 c
334 181 c
182 30 c
30 134 v
34 134 v
181 33 c
329 182 c
280 300 c
80 360 c
30 482 c
181 633 c
179 636 v
184 636 v
184 28 v
179 28 v
0 0 z
EndSpiro
EndSplineSet
        Fore
        SplineSet
361 500 m 0
298 500 l 0
294 527 279 554 258 572 c 0
237 590 209 600 181 600 c 0
149 599 118 585 96 562 c 0
75 539 62 508 61 477 c 0
60 459 62 442 68 426 c 0
74 410 84 395 98 384 c 0
111 372 127 364 144 359 c 0
161 354 178 352 196 349 c 0
231 345 267 342 298 324 c 0
322 309 340 286 350 259 c 0
361 233 363 204 361 177 c 0
356 131 336 87 303 54 c 0
271 22 226 1 181 0 c 0
136 -1 91 14 58 43 c 0
24 73 2 115 -1 160 c 0
61 160 l 0
64 131 78 105 100 86 c 0
121 68 149 58 178 59 c 0
209 59 240 73 262 96 c 0
283 119 296 150 298 182 c 0
298 199 296 216 290 232 c 0
284 248 274 263 261 275 c 0
247 286 231 294 214 299 c 0
197 304 180 306 162 308 c 0
127 313 91 316 61 335 c 0
37 349 18 373 8 399 c 0
-1 425 -3 454 -1 482 c 0
3 527 23 571 55 603 c 0
88 636 132 656 178 659 c 0
222 661 267 645 301 616 c 0
334 586 356 544 361 500 c 0
Z
148 690 m 0
211 690 l 0
211 -30 l 0
148 -30 l 0
148 690 l 0
Z
Spiro
361 500 v
298 500 v
181 600 c
61 477 c
98 384 c
298 324 c
361 177 c
181 0 c
-1 160 v
61 160 v
178 59 c
298 182 c
261 275 c
61 335 c
-1 482 c
178 659 c
148 690 v
211 690 v
211 -30 v
148 -30 v
0 0 z
EndSpiro
EndSplineSet
        EndChar
StartChar: %
Encoding: 37 37 34
Width: 433
InSpiro: 1
Flags: H
LayerCount: 2
Back
SplineSet
329 634 m 0
 334 634 l 0
 34 30 l 0
 30 30 l 1024
30 510 m 0
 21 521 15 535 14 549 c 0
 13 563 15 578 22 591 c 0
 28 604 38 615 51 622 c 0
 63 630 77 634 92 634 c 0
 106 633 120 629 132 622 c 0
 144 614 154 603 160 590 c 0
 167 578 169 563 168 549 c 0
 167 535 161 521 153 510 c 1024
150 513 m 0
 158 523 163 536 164 550 c 0
 165 563 162 577 156 589 c 0
 150 601 141 612 129 619 c 0
 118 626 104 630 91 630 c 0
 77 629 64 626 52 618 c 0
 41 611 31 601 25 589 c 0
 20 577 17 563 18 550 c 0
 19 536 24 523 33 513 c 1024
333 153 m 0
 341 141 346 127 348 113 c 0
 349 99 346 84 340 72 c 0
 333 59 323 48 311 41 c 0
 299 33 285 29 271 30 c 0
 256 30 242 34 230 41 c 0
 218 49 208 60 202 72 c 0
 196 85 193 99 194 113 c 0
 196 127 201 141 210 153 c 1024
213 150 m 0
 205 139 200 126 198 112 c 0
 197 99 200 85 206 73 c 0
 212 61 222 51 233 44 c 0
 245 37 258 33 272 34 c 0
 285 34 298 37 309 44 c 0
 321 52 330 62 336 74 c 0
 342 86 345 99 343 113 c 0
 342 126 337 139 330 150 c 1024
  Spiro
    329 634 v
    334 634 v
    34 30 v
    30 30 v
    30 510 c
    92 634 c
    153 510 c
    150 513 c
    91 630 c
    33 513 c
    333 153 c
    271 30 c
    210 153 c
    213 150 c
    272 34 c
    330 150 c
    0 0 z
  EndSpiro
EndSplineSet
Fore
SplineSet
298 660 m 0
 361 660 l 0
 61 0 l 0
 -1 0 l 1024
4 491 m 0
 -7 506 -14 525 -16 545 c 0
 -17 564 -13 584 -5 602 c 0
 3 619 17 634 34 644 c 0
 50 654 70 660 90 660 c 0
 109 659 128 654 145 644 c 0
 161 633 175 618 184 601 c 0
 193 584 196 564 195 544 c 0
 193 525 186 506 175 491 c 1024
124 528 m 0
 129 534 132 542 133 550 c 0
 134 559 132 567 129 575 c 0
 125 582 119 589 112 593 c 0
 105 597 97 600 89 600 c 0
 80 599 72 597 65 592 c 0
 58 588 52 582 49 574 c 0
 45 567 44 558 45 550 c 0
 46 542 49 534 55 528 c 1024
355 168 m 0
 366 152 373 133 374 114 c 0
 376 94 372 74 363 57 c 0
 354 40 341 25 324 15 c 0
 307 5 288 0 269 0 c 0
 249 0 230 5 213 15 c 0
 197 25 183 40 175 58 c 0
 166 75 162 94 164 114 c 0
 165 133 172 152 184 168 c 1024
235 131 m 0
 229 124 226 116 225 108 c 0
 225 100 226 91 230 84 c 0
 233 77 239 70 246 66 c 0
 253 62 261 59 270 60 c 0
 278 60 286 62 293 66 c 0
 299 71 305 77 309 84 c 0
 312 92 314 100 313 108 c 0
 312 116 309 124 304 131 c 1024
  Spiro
    298 660 v
    361 660 v
    61 0 v
    -1 0 v
    4 491 c
    90 660 c
    175 491 c
    124 528 c
    89 600 c
    55 528 c
    355 168 c
    269 0 c
    184 168 c
    235 131 c
    270 60 c
    304 131 c
    0 0 z
  EndSpiro
EndSplineSet
EndChar
StartChar: &
Encoding: 38 38 11
Width: 433
InSpiro: 1
Flags: H
LayerCount: 2
Back
SplineSet
334 30 m 0
 329 30 l 0
 180 180 l 0
 139 221 98 264 71 314 c 0
 43 365 28 424 30 482 c 0
 31 524 41 567 68 599 c 0
 82 615 100 628 120 634 c 0
 140 641 162 640 182 633 c 0
 195 627 207 618 216 606 c 0
 226 595 232 582 236 567 c 0
 245 539 242 509 234 481 c 0
 216 422 175 373 133 330 c 0
 111 308 89 287 71 263 c 0
 52 238 37 211 34 181 c 0
 29 149 38 116 56 89 c 0
 74 63 101 43 132 33 c 0
 170 20 215 23 251 42 c 0
 288 60 316 94 329 134 c 0
 334 134 l 0
 321 93 291 58 254 39 c 0
 216 20 171 16 131 30 c 0
 99 40 71 60 52 87 c 0
 34 115 25 149 30 182 c 0
 34 212 48 240 67 265 c 0
 86 289 108 310 130 333 c 0
 171 376 211 424 229 482 c 0
 237 509 240 538 233 566 c 0
 229 579 223 592 214 604 c 0
 205 615 194 624 181 630 c 0
 161 638 140 638 120 631 c 0
 100 625 83 612 70 597 c 0
 43 565 34 522 34 481 c 0
 33 423 48 366 75 316 c 0
 103 266 142 223 183 183 c 1024
  Spiro
    334 30 v
    329 30 v
    180 180 ]
    30 482 c
    182 633 c
    234 481 c
    133 330 c
    34 181 c
    132 33 c
    329 134 v
    334 134 v
    131 30 c
    30 182 c
    130 333 c
    229 482 c
    181 630 c
    34 481 c
    183 183 [
    0 0 z
  EndSpiro
EndSplineSet
Fore
SplineSet
361 0 m 0
 298 0 l 0
 157 158 l 0
 116 203 75 250 46 304 c 0
 16 357 -1 418 -1 480 c 0
 0 531 15 584 50 621 c 0
 68 640 91 654 116 661 c 0
 141 668 168 666 192 657 c 0
 208 650 223 638 235 625 c 0
 246 611 255 595 261 577 c 0
 271 543 269 505 260 471 c 0
 241 407 198 354 152 309 c 0
 132 289 111 271 94 249 c 0
 77 228 64 203 61 176 c 0
 58 150 64 124 79 103 c 0
 93 82 114 66 139 58 c 0
 173 46 212 51 242 70 c 0
 273 90 294 124 298 160 c 0
 361 160 l 0
 355 105 323 53 278 23 c 0
 232 -6 172 -15 120 1 c 0
 82 12 47 36 25 69 c 0
 3 102 -6 143 -1 183 c 0
 4 216 20 247 40 274 c 0
 59 301 83 325 107 350 c 0
 145 390 182 434 199 488 c 0
 205 508 208 530 204 551 c 0
 202 562 197 572 191 581 c 0
 185 590 176 597 167 602 c 0
 152 608 134 608 119 603 c 0
 103 597 90 586 81 573 c 0
 71 559 65 544 62 528 c 0
 59 511 59 495 61 479 c 0
 65 426 84 375 110 329 c 0
 136 284 169 242 202 201 c 1024
  Spiro
    361 0 v
    298 0 v
    157 158 ]
    -1 480 c
    192 657 c
    260 471 c
    152 309 c
    61 176 c
    139 58 c
    298 160 v
    361 160 v
    120 1 c
    -1 183 c
    107 350 c
    199 488 c
    167 602 c
    61 479 c
    202 201 [
    0 0 z
  EndSpiro
EndSplineSet
EndChar
StartChar: (
Encoding: 40 40 32
Width: 283
InSpiro: 1
Flags: H
LayerCount: 2
Back
SplineSet
184 636 m 0
 184 632 l 0
 91 562 33 447 34 332 c 0
 34 216 91 101 184 32 c 0
 184 28 l 0
 88 97 29 214 30 332 c 1024
  Spiro
    184 636 v
    184 632 v
    34 332 c
    184 32 v
    184 28 v
    30 332 c
    0 0 z
  EndSpiro
EndSplineSet
Fore
SplineSet
211 690 m 0
 211 630 l 0
 118 560 60 445 61 330 c 0
 61 214 118 99 211 30 c 0
 211 -30 l 0
 147 5 92 58 55 121 c 0
 18 184 -1 256 -1 330 c 1024
  Spiro
    211 690 v
    211 630 v
    61 330 c
    211 30 v
    211 -30 v
    -1 330 c
    0 0 z
  EndSpiro
EndSplineSet
EndChar
StartChar: )
Encoding: 41 41 33
Width: 386
InSpiro: 1
Flags: H
LayerCount: 2
Back
SplineSet
73 632 m 0
 73 636 l 0
 168 566 228 450 228 332 c 0
 227 213 168 97 73 28 c 0
 73 32 l 0
 165 101 223 216 223 332 c 1024
  Spiro
    73 632 v
    73 636 v
    228 332 c
    73 28 v
    73 32 v
    223 332 c
    0 0 z
  EndSpiro
EndSplineSet
Fore
SplineSet
101 630 m 0
 101 690 l 0
 165 654 219 602 256 539 c 0
 294 476 314 403 314 330 c 0
 314 256 294 183 256 120 c 0
 219 57 165 5 101 -30 c 0
 101 30 l 0
 193 99 251 214 251 330 c 1024
  Spiro
    101 630 v
    101 690 v
    314 330 c
    101 -30 v
    101 30 v
    251 330 c
    0 0 z
  EndSpiro
EndSplineSet
EndChar
StartChar: )
Encoding: 41 41 0
Width: 283
InSpiro: 1
        Flags: H
        LayerCount: 2
        Back
        SplineSet
30 632 m 0
30 636 l 0
125 566 184 449 184 332 c 0
184 214 125 97 30 28 c 0
30 32 l 0
122 101 179 216 179 332 c 0
179 447 122 562 30 632 c 0
Z
Spiro
30 632 v
30 636 v
184 332 c
30 28 v
30 32 v
179 332 c
0 0 z
EndSpiro
EndSplineSet
        Fore
        SplineSet
-1 630 m 0
-1 690 l 0
62 654 117 601 154 538 c 0
191 475 211 403 211 330 c 0
211 256 191 184 154 121 c 0
117 58 62 5 -1 -30 c 0
-1 30 l 0
91 99 148 214 148 330 c 0
148 445 91 560 -1 630 c 0
Z
Spiro
-1 630 v
-1 690 v
211 330 c
-1 -30 v
-1 30 v
148 330 c
0 0 z
EndSpiro
EndSplineSet
        EndChar
StartChar: ,
Encoding: 44 44 14
Width: 283
InSpiro: 1
Flags: H
LayerCount: 2
Back
SplineSet
179 34 m 0
 184 34 l 0
 182 28 l 0
 177 28 l 1024
  Spiro
    179 34 v
    184 34 v
    182 28 v
    177 28 v
    0 0 z
  EndSpiro
EndSplineSet
Fore
SplineSet
148 60 m 0
 211 60 l 0
 181 -30 l 0
 118 -30 l 1024
  Spiro
    148 60 v
    211 60 v
    181 -30 v
    118 -30 v
    0 0 z
  EndSpiro
EndSplineSet
EndChar
StartChar: .
Encoding: 46 46 0
Width: 283
InSpiro: 1
        Flags: H
        LayerCount: 2
        Back
        SplineSet
182 25 m 0
183 24 185 25 186 27 c 0
188 28 189 30 189 32 c 0
188 33 188 35 186 36 c 0
185 38 183 38 182 39 c 0
180 39 178 38 177 36 c 0
175 35 175 33 175 32 c 0
174 30 175 28 177 27 c 0
178 25 180 24 182 25 c 0
Z
Spiro
182 25 c
189 32 c
182 39 c
175 32 c
0 0 z
EndSpiro
EndSplineSet
        Fore
        SplineSet
180 -5 m 0
189 -5 198 -1 204 5 c 0
211 11 215 20 215 30 c 0
214 39 211 48 204 54 c 0
198 61 189 64 180 65 c 0
170 65 161 61 155 54 c 0
148 48 145 39 145 30 c 0
144 20 148 11 155 5 c 0
161 -1 170 -5 180 -5 c 0
Z
Spiro
180 -5 c
215 30 c
180 65 c
145 30 c
0 0 z
EndSpiro
EndSplineSet
        EndChar
StartChar: 3
Encoding: 51 51 0
Width: 433
InSpiro: 1
        Flags: H
        LayerCount: 2
        Back
        SplineSet
34 530 m 0
30 530 l 0
40 561 60 589 88 607 c 0
115 626 149 635 182 633 c 0
220 630 257 612 284 584 c 0
311 556 328 520 334 482 c 0
337 461 336 439 331 419 c 0
326 399 315 380 300 365 c 0
285 350 266 340 245 335 c 0
225 330 204 329 183 330 c 0
179 330 l 0
179 334 l 0
183 334 l 0
203 333 223 334 243 339 c 0
263 344 281 354 296 368 c 0
310 382 321 400 326 420 c 0
331 440 331 460 329 481 c 0
323 518 307 554 281 581 c 0
254 609 218 627 181 630 c 0
149 632 116 623 90 605 c 0
63 587 43 560 34 530 c 0
Z
179 330 m 0
179 334 l 0
183 334 l 0
204 334 225 333 245 328 c 0
266 323 285 313 300 298 c 0
315 283 326 264 331 243 c 0
337 223 337 201 334 181 c 0
328 142 311 106 284 78 c 0
257 50 220 32 182 30 c 0
148 27 115 36 87 55 c 0
60 74 39 102 30 134 c 0
34 134 l 0
43 103 63 75 89 57 c 0
116 39 148 30 181 33 c 0
218 35 254 53 280 81 c 0
307 108 323 144 329 182 c 0
331 202 331 223 326 242 c 0
321 262 311 281 296 295 c 0
282 309 263 319 243 324 c 0
224 329 203 330 183 330 c 0
179 330 l 0
Z
Spiro
34 530 v
30 530 v
182 633 c
334 482 c
183 330 [
179 330 v
179 334 v
183 334 ]
329 481 c
181 630 c
179 330 v
179 334 v
183 334 ]
334 181 c
182 30 c
30 134 v
34 134 v
181 33 c
329 182 c
183 330 [
0 0 z
EndSpiro
EndSplineSet
        Fore
        SplineSet
61 500 m 0
-1 500 l 0
2 544 24 587 57 617 c 0
91 646 137 661 182 659 c 0
226 656 270 635 301 603 c 0
333 570 353 528 361 484 c 0
365 458 365 433 359 408 c 0
352 383 340 360 322 343 c 0
304 325 281 312 256 306 c 0
231 300 206 299 181 300 c 0
148 300 l 0
148 360 l 0
181 360 l 0
196 359 213 360 228 364 c 0
244 368 258 375 270 386 c 0
281 397 290 412 294 427 c 0
299 442 299 459 298 475 c 0
294 506 281 537 260 560 c 0
238 583 208 598 177 600 c 0
148 601 120 591 99 573 c 0
77 554 63 527 61 500 c 0
Z
148 300 m 0
148 360 l 0
181 360 l 0
206 360 232 359 256 353 c 0
281 346 304 334 322 316 c 0
340 298 353 275 359 250 c 0
365 226 365 200 361 175 c 0
353 130 333 88 301 56 c 0
269 24 226 2 182 0 c 0
137 -2 91 12 57 42 c 0
23 71 2 115 -1 160 c 0
61 160 l 0
63 131 77 104 98 86 c 0
120 67 148 57 177 59 c 0
208 60 238 75 260 98 c 0
281 122 294 152 298 184 c 0
299 199 299 216 294 231 c 0
290 247 282 261 270 273 c 0
259 284 244 291 228 295 c 0
213 299 197 300 181 300 c 0
148 300 l 0
Z
Spiro
61 500 v
-1 500 v
182 659 c
361 484 c
181 300 [
148 300 v
148 360 v
181 360 ]
298 475 c
177 600 c
148 300 v
148 360 v
181 360 ]
361 175 c
182 0 c
-1 160 v
61 160 v
177 59 c
298 184 c
181 300 [
0 0 z
EndSpiro
EndSplineSet
        EndChar
StartChar: 5
Encoding: 53 53 0
Width: 433
InSpiro: 1
        Flags: H
        LayerCount: 2
        Back
        SplineSet
334 634 m 0
334 630 l 0
34 630 l 0
34 330 l 0
30 330 l 0
30 634 l 0
30 634 l 0
334 634 l 0
Z
34 330 m 0
30 330 l 0
38 362 59 390 87 409 c 0
114 428 148 436 182 433 c 0
227 427 269 400 295 362 c 0
322 324 333 277 334 232 c 0
334 185 322 138 296 100 c 0
269 63 227 34 182 30 c 0
148 26 114 35 86 53 c 0
59 72 38 101 30 134 c 0
34 134 l 0
42 102 62 74 88 56 c 0
115 37 148 29 181 33 c 0
226 37 266 65 292 103 c 0
318 140 329 186 329 232 c 0
328 277 317 322 292 360 c 0
266 397 225 425 181 430 c 0
148 433 115 425 89 407 c 0
62 388 42 361 34 330 c 0
Z
Spiro
334 634 v
334 630 v
34 630 v
34 330 v
30 330 v
30 634 v
30 634 v
34 330 v
30 330 v
182 433 c
334 232 c
182 30 c
30 134 v
34 134 v
181 33 c
329 232 c
181 430 c
0 0 z
EndSpiro
EndSplineSet
        Fore
        SplineSet
361 660 m 0
361 600 l 0
61 600 l 0
61 300 l 0
-1 300 l 0
-1 660 l 0
-1 660 l 0
361 660 l 0
Z
61 300 m 0
-1 300 l 0
1 345 22 389 56 419 c 0
91 448 137 463 183 459 c 0
235 453 284 422 315 379 c 0
346 336 360 282 361 230 c 0
361 176 346 122 315 79 c 0
284 36 235 5 183 0 c 0
137 -4 90 10 56 40 c 0
22 70 0 114 -1 160 c 0
61 160 l 0
62 131 75 103 96 84 c 0
118 66 147 56 176 59 c 0
195 60 213 67 229 78 c 0
245 89 259 103 269 119 c 0
290 152 298 191 298 230 c 0
297 268 289 307 269 339 c 0
258 355 245 370 229 380 c 0
213 391 195 398 176 400 c 0
147 402 118 393 97 374 c 0
75 355 62 328 61 300 c 0
Z
Spiro
361 660 v
361 600 v
61 600 v
61 300 v
-1 300 v
-1 660 v
-1 660 v
61 300 v
-1 300 v
183 459 c
361 230 c
183 0 c
-1 160 v
61 160 v
176 59 c
298 230 c
176 400 c
0 0 z
EndSpiro
EndSplineSet
        EndChar
StartChar: 8
Encoding: 56 56 0
Width: 433
InSpiro: 1
        Flags: H
        LayerCount: 2
        Back
        SplineSet
182 630 m 0
142 630 101 616 72 589 c 0
57 576 46 559 39 540 c 0
32 522 30 501 34 482 c 0
37 464 45 447 55 432 c 0
65 417 78 404 92 393 c 0
120 369 151 351 183 333 c 0
214 314 246 295 274 272 c 0
288 260 301 247 312 232 c 0
322 217 330 200 334 182 c 0
337 161 335 140 328 121 c 0
321 102 309 84 294 70 c 0
263 43 222 29 181 30 c 0
140 30 99 43 69 71 c 0
54 85 42 102 35 121 c 0
28 141 26 161 30 182 c 0
33 199 41 216 51 232 c 0
61 247 74 260 88 272 c 0
116 295 148 314 180 333 c 0
211 351 242 369 270 393 c 0
284 404 297 417 307 432 c 0
317 447 325 464 329 482 c 0
332 501 330 521 323 540 c 0
316 559 305 575 290 589 c 0
261 616 221 629 182 630 c 0
Z
334 481 m 0
330 462 322 445 312 430 c 0
301 415 288 402 274 390 c 0
246 367 214 348 183 330 c 0
151 311 120 293 92 269 c 0
78 258 65 245 55 230 c 0
45 215 37 198 34 181 c 0
30 161 32 141 39 122 c 0
46 103 58 87 72 73 c 0
101 46 142 33 182 34 c 0
221 34 261 47 290 74 c 0
305 87 316 104 323 122 c 0
330 141 332 161 329 181 c 0
325 198 317 215 307 230 c 0
297 245 284 258 270 269 c 0
242 293 211 311 180 330 c 0
148 348 116 367 88 390 c 0
74 402 61 415 51 430 c 0
41 446 33 463 30 481 c 0
26 501 28 522 35 541 c 0
42 560 54 577 68 591 c 0
98 619 140 633 181 634 c 0
222 634 264 620 294 592 c 0
309 578 321 561 328 541 c 0
335 522 337 501 334 481 c 0
Z
Spiro
182 630 c
34 482 c
183 333 a
283 273 h
334 182 c
181 30 c
30 182 c
180 333 a
280 393 h
329 482 c
334 481 c
183 330 a
83 270 h
34 181 c
182 34 c
329 181 c
180 330 a
80 390 h
30 481 c
181 634 c
0 0 z
EndSpiro
EndSplineSet
        Fore
        SplineSet
180 600 m 0
148 600 116 590 92 569 c 0
80 559 71 546 65 531 c 0
59 516 57 500 60 485 c 0
62 469 69 454 79 441 c 0
89 428 101 417 114 407 c 0
139 387 168 371 196 355 c 0
230 334 266 313 296 286 c 0
326 259 352 224 360 185 c 0
364 160 362 135 354 112 c 0
346 88 332 67 314 50 c 0
278 16 228 0 179 0 c 0
130 0 80 17 45 51 c 0
27 68 13 89 5 112 c 0
-2 135 -4 160 0 185 c 0
7 224 32 259 62 286 c 0
93 313 128 334 163 355 c 0
190 371 219 387 244 407 c 0
257 417 269 428 279 441 c 0
289 454 296 469 299 485 c 0
301 500 299 516 293 531 c 0
287 545 278 558 266 569 c 0
243 590 211 599 180 600 c 0
Z
360 474 m 0
352 434 326 399 296 372 c 0
266 345 230 324 196 304 c 0
168 287 139 271 114 251 c 0
101 241 89 230 79 217 c 0
69 204 62 189 60 174 c 0
57 158 59 142 65 127 c 0
71 113 80 100 92 89 c 0
116 69 148 59 180 60 c 0
211 60 243 69 266 90 c 0
278 100 287 113 293 128 c 0
299 142 301 158 299 174 c 0
296 189 289 204 279 217 c 0
269 230 257 241 244 251 c 0
219 271 190 287 163 304 c 0
128 324 93 345 63 372 c 0
32 399 7 434 0 474 c 0
-4 498 -2 523 5 546 c 0
13 569 27 590 45 607 c 0
80 642 129 659 179 660 c 0
228 660 278 643 314 608 c 0
332 591 346 570 354 547 c 0
362 523 364 498 360 474 c 0
Z
Spiro
180 600 c
60 485 c
196 355 a
296 295 h
360 185 c
179 0 c
0 185 c
163 355 a
263 415 h
299 485 c
360 474 c
196 304 a
96 244 h
60 174 c
180 60 c
299 174 c
163 304 a
63 364 h
0 474 c
179 660 c
0 0 z
EndSpiro
EndSplineSet
        EndChar
StartChar: 9
Encoding: 57 57 0
Width: 433
InSpiro: 1
        Flags: H
        LayerCount: 2
        Back
        SplineSet
184 30 m 0
179 30 l 0
256 113 309 219 329 332 c 0
337 381 340 432 329 481 c 0
320 517 304 552 279 580 c 0
253 608 218 627 181 630 c 0
141 632 102 616 74 588 c 0
47 560 32 521 34 482 c 0
35 443 51 405 78 378 c 0
105 350 143 334 182 333 c 0
213 332 245 341 271 359 c 0
298 377 318 404 329 434 c 0
334 434 l 0
322 402 301 375 274 357 c 0
247 338 213 328 181 330 c 0
141 331 103 347 75 375 c 0
47 403 31 441 30 481 c 0
28 521 44 562 72 591 c 0
100 619 141 635 182 633 c 0
220 630 256 610 282 582 c 0
308 555 325 519 334 482 c 0
345 432 342 380 334 331 c 0
313 219 261 113 184 30 c 0
Z
Spiro
184 30 v
179 30 v
329 332 c
329 481 c
181 630 c
34 482 c
182 333 c
329 434 v
334 434 v
181 330 c
30 481 c
182 633 c
334 482 c
334 331 c
0 0 z
EndSpiro
EndSplineSet
        Fore
        SplineSet
211 0 m 0
148 0 l 0
225 96 277 212 298 335 c 0
305 380 308 427 299 473 c 0
292 503 279 533 258 557 c 0
238 581 208 598 177 600 c 0
145 601 114 588 92 565 c 0
71 542 60 511 61 480 c 0
61 448 74 417 96 395 c 0
118 373 148 359 180 359 c 0
208 358 236 368 258 387 c 0
279 405 294 431 298 460 c 0
361 460 l 0
355 416 333 374 300 345 c 0
267 315 223 299 179 300 c 0
132 300 86 320 52 353 c 0
19 386 0 432 -1 479 c 0
-2 527 16 575 50 609 c 0
84 643 133 662 182 659 c 0
226 655 267 633 298 602 c 0
329 570 349 529 360 486 c 0
372 433 369 377 361 324 c 0
341 205 288 92 211 0 c 0
Z
Spiro
211 0 v
148 0 v
298 335 c
299 473 c
177 600 c
61 480 c
180 359 c
298 460 v
361 460 v
179 300 c
-1 479 c
182 659 c
360 486 c
361 324 c
0 0 z
EndSpiro
EndSplineSet
        EndChar
StartChar: C
Encoding: 67 67 0
Width: 433
InSpiro: 1
        Flags: H
        LayerCount: 2
        Back
        SplineSet
334 530 m 0
329 530 l 0
322 561 302 590 275 609 c 0
248 627 214 635 182 630 c 0
152 625 124 609 102 588 c 0
81 566 65 540 55 511 c 0
34 454 34 392 34 332 c 0
33 271 33 208 54 151 c 0
65 123 80 96 102 74 c 0
124 53 151 37 182 33 c 0
214 27 248 35 275 54 c 0
302 72 322 101 329 134 c 0
334 134 l 0
327 100 306 70 278 51 c 0
250 31 214 24 181 30 c 0
150 35 122 51 100 72 c 0
78 94 62 121 52 150 c 0
30 207 29 270 30 332 c 0
30 393 30 455 52 513 c 0
63 542 79 569 101 590 c 0
122 611 150 627 181 633 c 0
214 638 250 631 278 612 c 0
306 593 326 563 334 530 c 0
Z
Spiro
334 530 v
329 530 v
182 630 c
34 332 c
182 33 c
329 134 v
334 134 v
181 30 c
30 332 c
181 633 c
0 0 z
EndSpiro
EndSplineSet
        Fore
        SplineSet
361 500 m 0
298 500 l 0
297 528 284 556 263 574 c 0
242 593 213 603 185 600 c 0
157 597 132 583 113 563 c 0
94 543 81 518 73 492 c 0
57 440 61 384 61 330 c 0
60 275 57 219 73 166 c 0
81 140 94 115 113 95 c 0
132 75 157 61 185 59 c 0
213 56 242 65 263 84 c 0
285 103 297 131 298 160 c 0
361 160 l 0
362 112 341 65 305 35 c 0
270 4 220 -8 174 0 c 0
140 6 109 23 85 46 c 0
60 69 41 98 28 130 c 0
2 192 -1 262 -1 330 c 0
0 397 2 466 28 529 c 0
42 560 60 589 85 612 c 0
110 635 140 652 174 659 c 0
220 667 269 654 305 624 c 0
341 593 362 546 361 500 c 0
Z
Spiro
361 500 v
298 500 v
185 600 c
61 330 c
185 59 c
298 160 v
361 160 v
174 0 c
-1 330 c
174 659 c
0 0 z
EndSpiro
EndSplineSet
        EndChar
StartChar: H
Encoding: 72 72 0
Width: 433
InSpiro: 1
        Flags: H
        LayerCount: 2
        Back
        SplineSet
34 30 m 0
30 30 l 0
30 634 l 0
34 634 l 0
34 30 l 0
Z
30 330 m 0
30 334 l 0
334 334 l 0
334 330 l 0
30 330 l 0
Z
334 30 m 0
329 30 l 0
329 634 l 0
334 634 l 0
334 30 l 0
Z
Spiro
34 30 v
30 30 v
30 634 v
34 634 v
30 330 v
30 334 v
334 334 v
334 330 v
334 30 v
329 30 v
329 634 v
334 634 v
0 0 z
EndSpiro
EndSplineSet
        Fore
        SplineSet
61 0 m 0
-1 0 l 0
-1 660 l 0
61 660 l 0
61 0 l 0
Z
-1 300 m 0
-1 360 l 0
361 360 l 0
361 300 l 0
-1 300 l 0
Z
361 0 m 0
298 0 l 0
298 660 l 0
361 660 l 0
361 0 l 0
Z
Spiro
61 0 v
-1 0 v
-1 660 v
61 660 v
-1 300 v
-1 360 v
361 360 v
361 300 v
361 0 v
298 0 v
298 660 v
361 660 v
0 0 z
EndSpiro
EndSplineSet
        EndChar
StartChar: M
Encoding: 77 77 0
Width: 583
InSpiro: 1
        Flags: H
        LayerCount: 2
        Back
        SplineSet
34 30 m 0
30 30 l 0
30 634 l 0
34 634 l 0
257 37 l 0
479 634 l 0
484 634 l 0
484 30 l 0
479 30 l 0
479 620 l 0
259 30 l 0
254 30 l 0
34 620 l 0
34 30 l 0
Z
Spiro
34 30 v
30 30 v
30 634 v
34 634 v
257 37 v
479 634 v
484 634 v
484 30 v
479 30 v
479 620 v
259 30 v
254 30 v
34 620 v
0 0 z
EndSpiro
EndSplineSet
        Fore
        SplineSet
61 0 m 0
-1 0 l 0
-1 660 l 0
61 660 l 0
255 115 l 0
448 660 l 0
511 660 l 0
511 0 l 0
448 0 l 0
449 464 l 0
286 0 l 0
223 0 l 0
60 464 l 0
61 0 l 0
Z
Spiro
61 0 v
-1 0 v
-1 660 v
61 660 v
255 115 v
448 660 v
511 660 v
511 0 v
448 0 v
449 464 v
286 0 v
223 0 v
60 464 v
0 0 z
EndSpiro
EndSplineSet
        EndChar
StartChar: U
Encoding: 85 85 0
Width: 433
InSpiro: 1
        Flags: H
        LayerCount: 2
        Back
        SplineSet
30 634 m 0
34 634 l 0
34 332 l 0
34 270 32 207 51 148 c 0
61 118 76 90 98 69 c 0
121 48 151 33 182 34 c 0
212 34 242 48 264 69 c 0
286 91 301 119 311 148 c 0
330 207 328 270 329 332 c 0
329 634 l 0
334 634 l 0
334 332 l 0
334 269 335 205 315 145 c 0
305 115 289 87 266 65 c 0
243 44 213 30 182 30 c 0
150 30 120 44 97 65 c 0
74 87 58 115 48 145 c 0
28 204 30 269 30 332 c 0
30 634 l 0
Z
Spiro
30 634 v
34 634 v
34 332 ]
182 34 c
329 332 [
329 634 v
334 634 v
334 332 ]
182 30 c
30 332 [
0 0 z
EndSpiro
EndSplineSet
        Fore
        SplineSet
-1 660 m 0
61 660 l 0
61 330 l 0
60 275 58 219 71 166 c 0
78 140 89 114 108 94 c 0
117 84 128 75 140 69 c 0
152 63 166 59 180 60 c 0
193 60 207 63 219 69 c 0
231 75 242 84 251 94 c 0
269 115 280 140 287 167 c 0
300 220 297 275 298 330 c 0
298 660 l 0
361 660 l 0
361 330 l 0
361 259 360 187 335 122 c 0
322 90 302 59 276 37 c 0
249 14 215 0 180 0 c 0
144 0 110 14 84 37 c 0
57 59 37 90 24 122 c 0
0 187 0 259 -1 330 c 0
-1 660 l 0
Z
Spiro
-1 660 v
61 660 v
61 330 ]
180 60 c
298 330 [
298 660 v
361 660 v
361 330 ]
180 0 c
-1 330 [
0 0 z
EndSpiro
EndSplineSet
        EndChar
StartChar: b
Encoding: 98 98 0
Width: 433
InSpiro: 1
        Flags: H
        LayerCount: 2
        Back
        SplineSet
30 634 m 0
34 634 l 0
34 30 l 0
30 30 l 0
30 634 l 0
Z
34 290 m 0
30 290 l 0
39 321 60 349 87 368 c 0
115 386 149 395 182 393 c 0
225 389 266 366 293 332 c 0
320 298 334 254 334 211 c 0
333 167 320 124 292 90 c 0
265 56 225 33 182 30 c 0
148 27 115 36 87 55 c 0
60 73 39 102 30 134 c 0
34 134 l 0
43 103 63 75 89 57 c 0
116 39 148 30 181 33 c 0
223 36 263 59 289 92 c 0
316 126 329 169 329 212 c 0
328 254 315 297 289 330 c 0
262 363 223 386 181 390 c 0
149 392 116 383 89 365 c 0
63 347 43 320 34 290 c 0
Z
Spiro
30 634 v
34 634 v
34 30 v
30 30 v
34 290 v
30 290 v
182 393 c
334 211 c
182 30 c
30 134 v
34 134 v
181 33 c
329 212 c
181 390 c
0 0 z
EndSpiro
EndSplineSet
        Fore
        SplineSet
-1 660 m 0
61 660 l 0
61 0 l 0
-1 0 l 0
-1 660 l 0
Z
61 260 m 0
-1 260 l 0
2 304 23 347 57 377 c 0
91 406 137 421 182 419 c 0
232 415 280 389 312 349 c 0
344 310 361 259 361 209 c 0
360 158 344 107 312 68 c 0
280 29 232 3 182 0 c 0
137 -2 91 12 57 42 c 0
23 71 2 115 -1 160 c 0
61 160 l 0
63 131 76 104 98 85 c 0
119 66 148 57 177 59 c 0
212 61 245 81 266 109 c 0
288 138 298 174 298 210 c 0
297 245 287 281 266 309 c 0
245 337 212 357 177 360 c 0
148 361 119 352 98 333 c 0
77 315 63 288 61 260 c 0
Z
Spiro
-1 660 v
61 660 v
61 0 v
-1 0 v
61 260 v
-1 260 v
182 419 c
361 209 c
182 0 c
-1 160 v
61 160 v
177 59 c
298 210 c
177 360 c
0 0 z
EndSpiro
EndSplineSet
        EndChar
StartChar: c
Encoding: 99 99 0
Width: 433
InSpiro: 1
        Flags: H
        LayerCount: 2
        Back
        SplineSet
334 292 m 0
329 292 l 0
319 322 298 348 272 366 c 0
246 384 213 392 182 390 c 0
139 386 100 363 73 330 c 0
47 297 34 254 34 212 c 0
33 169 47 126 73 93 c 0
99 59 139 36 182 33 c 0
213 30 246 38 272 56 c 0
299 74 319 101 329 132 c 0
334 132 l 0
323 100 302 72 275 54 c 0
247 35 213 27 181 30 c 0
138 33 97 57 70 90 c 0
43 124 30 167 30 211 c 0
29 254 43 297 70 331 c 0
97 365 137 389 181 393 c 0
213 395 247 387 275 369 c 0
302 351 323 323 334 292 c 0
Z
Spiro
334 292 v
329 292 v
182 390 c
34 212 c
182 33 c
329 132 v
334 132 v
181 30 c
30 211 c
181 393 c
0 0 z
EndSpiro
EndSplineSet
        Fore
        SplineSet
361 290 m 0
298 290 l 0
288 312 272 331 251 343 c 0
231 356 206 361 183 360 c 0
147 357 114 337 93 309 c 0
71 281 61 245 61 210 c 0
60 174 71 138 92 110 c 0
114 81 147 61 183 59 c 0
207 57 231 63 252 75 c 0
272 88 288 107 298 130 c 0
361 130 l 0
350 90 325 54 292 31 c 0
258 7 216 -3 176 0 c 0
126 4 78 30 47 69 c 0
15 108 0 158 -1 209 c 0
-1 259 15 309 46 348 c 0
78 387 125 414 176 419 c 0
216 422 258 411 291 388 c 0
325 364 350 329 361 290 c 0
Z
Spiro
361 290 v
298 290 v
183 360 c
61 210 c
183 59 c
298 130 v
361 130 v
176 0 c
-1 209 c
176 419 c
0 0 z
EndSpiro
EndSplineSet
        EndChar
StartChar: d
Encoding: 100 100 0
Width: 433
InSpiro: 1
        Flags: H
        LayerCount: 2
        Back
        SplineSet
334 30 m 0
329 30 l 0
329 634 l 0
334 634 l 0
334 30 l 0
Z
334 290 m 0
329 290 l 0
319 320 299 347 273 365 c 0
246 383 213 392 182 390 c 0
139 386 100 363 73 330 c 0
47 297 34 254 34 212 c 0
33 169 46 126 73 92 c 0
99 59 139 36 182 33 c 0
214 30 246 39 273 57 c 0
299 75 319 103 329 134 c 0
334 134 l 0
324 102 303 73 275 54 c 0
248 36 214 27 181 30 c 0
138 33 97 56 70 90 c 0
43 124 30 167 30 211 c 0
29 254 43 297 70 331 c 0
97 365 137 389 181 393 c 0
214 395 248 387 275 368 c 0
303 349 324 321 334 290 c 0
Z
Spiro
334 30 v
329 30 v
329 634 v
334 634 v
334 290 v
329 290 v
182 390 c
34 212 c
182 33 c
329 134 v
334 134 v
181 30 c
30 211 c
181 393 c
0 0 z
EndSpiro
EndSplineSet
        Fore
        SplineSet
361 0 m 0
298 0 l 0
298 660 l 0
361 660 l 0
361 0 l 0
Z
361 260 m 0
298 260 l 0
295 288 281 315 260 333 c 0
239 352 210 361 182 360 c 0
146 357 113 337 92 309 c 0
71 281 61 245 61 210 c 0
60 174 70 138 92 109 c 0
113 81 146 61 182 59 c 0
210 57 239 66 260 85 c 0
282 104 295 131 298 160 c 0
361 160 l 0
357 114 336 71 302 41 c 0
268 12 222 -3 177 0 c 0
126 3 79 30 47 69 c 0
15 108 0 158 -1 209 c 0
-1 259 15 310 47 349 c 0
78 388 126 415 177 419 c 0
221 422 267 407 301 377 c 0
335 348 357 304 361 260 c 0
Z
Spiro
361 0 v
298 0 v
298 660 v
361 660 v
361 260 v
298 260 v
182 360 c
61 210 c
182 59 c
298 160 v
361 160 v
177 0 c
-1 209 c
177 419 c
0 0 z
EndSpiro
EndSplineSet
        EndChar
StartChar: e
Encoding: 101 101 0
Width: 433
InSpiro: 1
        Flags: H
        LayerCount: 2
        Back
        SplineSet
31 230 m 0
31 234 l 0
329 234 l 0
339 265 340 299 330 331 c 0
319 361 299 388 273 406 c 0
246 424 213 433 182 430 c 0
159 427 137 419 118 407 c 0
99 395 83 379 70 360 c 0
45 323 33 277 34 232 c 0
34 186 45 140 70 103 c 0
96 65 137 38 182 33 c 0
213 29 247 37 273 55 c 0
300 73 320 101 329 132 c 0
334 132 l 0
324 99 304 71 276 52 c 0
248 34 214 26 181 30 c 0
135 35 94 63 68 101 c 0
42 138 30 185 30 231 c 0
29 277 40 324 66 362 c 0
80 381 96 397 116 410 c 0
135 422 158 430 181 433 c 0
213 436 247 427 274 408 c 0
301 390 322 362 333 332 c 0
344 299 344 262 334 230 c 0
334 230 l 0
31 230 l 0
Z
Spiro
31 230 v
31 234 v
329 234 v
330 331 c
182 430 c
34 232 c
182 33 c
329 132 v
334 132 v
181 30 c
30 231 c
181 433 c
333 332 c
334 230 v
334 230 v
0 0 z
EndSpiro
EndSplineSet
        Fore
        SplineSet
28 200 m 0
28 260 l 0
298 260 l 0
304 279 305 300 300 320 c 0
293 345 277 367 256 382 c 0
234 396 207 403 182 400 c 0
163 397 144 390 129 379 c 0
113 369 100 354 89 338 c 0
69 306 61 268 61 230 c 0
60 191 69 152 90 119 c 0
100 103 114 89 130 78 c 0
146 68 164 60 184 59 c 0
207 56 232 62 253 75 c 0
273 87 289 107 298 130 c 0
361 130 l 0
351 89 326 53 292 29 c 0
258 5 216 -5 175 0 c 0
122 6 75 37 44 80 c 0
13 123 0 176 -1 229 c 0
-1 282 12 336 43 379 c 0
74 423 123 454 177 459 c 0
215 462 255 451 287 429 c 0
320 407 345 375 359 339 c 0
375 294 376 244 361 200 c 0
361 200 l 0
28 200 l 0
Z
Spiro
28 200 v
28 260 v
298 260 v
300 320 c
182 400 c
61 230 c
184 59 c
298 130 v
361 130 v
175 0 c
-1 229 c
177 459 c
359 339 c
361 200 v
361 200 v
0 0 z
EndSpiro
EndSplineSet
        EndChar
StartChar: f
Encoding: 102 102 0
Width: 283
InSpiro: 1
        Flags: H
        LayerCount: 2
        Back
        SplineSet
184 634 m 0
184 630 l 0
160 631 136 626 115 615 c 0
94 605 76 588 63 568 c 0
50 548 42 526 38 502 c 0
34 479 33 455 34 432 c 0
34 30 l 0
30 30 l 0
30 432 l 0
30 456 30 480 34 504 c 0
38 528 46 551 60 571 c 0
73 592 91 609 113 619 c 0
135 630 159 635 184 634 c 0
Z
30 430 m 0
30 434 l 0
184 434 l 0
184 430 l 0
30 430 l 0
Z
Spiro
184 634 v
184 630 v
34 432 [
34 30 v
30 30 v
30 432 ]
30 430 v
30 434 v
184 434 v
184 430 v
0 0 z
EndSpiro
EndSplineSet
        Fore
        SplineSet
211 660 m 0
211 600 l 0
189 605 166 604 144 597 c 0
123 589 105 575 91 557 c 0
78 540 69 518 65 496 c 0
61 474 60 452 61 430 c 0
61 0 l 0
-1 0 l 0
-1 430 l 0
0 461 0 492 5 523 c 0
11 553 23 583 43 607 c 0
62 632 89 651 118 660 c 0
148 670 181 669 211 660 c 0
Z
-1 400 m 0
-1 460 l 0
211 460 l 0
211 400 l 0
-1 400 l 0
Z
Spiro
211 660 v
211 600 v
61 430 [
61 0 v
-1 0 v
-1 430 ]
-1 400 v
-1 460 v
211 460 v
211 400 v
0 0 z
EndSpiro
EndSplineSet
        EndChar
StartChar: g
Encoding: 103 103 0
Width: 433
InSpiro: 1
        Flags: H
        LayerCount: 2
        Back
        SplineSet
329 434 m 0
334 434 l 0
334 32 l 0
334 -29 333 -92 311 -150 c 0
300 -178 284 -205 262 -227 c 0
240 -248 212 -264 182 -269 c 0
148 -274 113 -266 85 -247 c 0
57 -228 37 -198 30 -166 c 0
34 -166 l 0
40 -197 60 -226 87 -245 c 0
114 -263 148 -271 181 -266 c 0
210 -261 238 -245 260 -224 c 0
281 -203 297 -176 307 -148 c 0
328 -91 328 -29 329 31 c 0
329 434 l 0
Z
334 330 m 0
329 330 l 0
320 361 300 388 273 407 c 0
247 425 214 433 182 430 c 0
137 425 96 397 70 360 c 0
45 322 34 277 34 232 c 0
33 186 44 140 70 103 c 0
96 65 136 37 182 33 c 0
214 29 247 37 274 56 c 0
300 74 320 102 329 134 c 0
334 134 l 0
325 101 304 72 276 53 c 0
249 34 214 26 181 30 c 0
135 35 93 63 67 101 c 0
41 139 29 185 30 232 c 0
30 277 41 324 67 362 c 0
94 399 135 427 181 433 c 0
214 436 248 428 276 409 c 0
304 391 325 362 334 330 c 0
Z
Spiro
329 434 v
334 434 v
334 32 ]
182 -269 c
30 -166 v
34 -166 v
181 -266 c
329 31 [
334 330 v
329 330 v
182 430 c
34 232 c
182 33 c
329 134 v
334 134 v
181 30 c
30 232 c
181 433 c
0 0 z
EndSpiro
EndSplineSet
        Fore
        SplineSet
298 460 m 0
361 460 l 0
361 30 l 0
361 -38 359 -108 333 -171 c 0
320 -202 300 -231 275 -254 c 0
250 -277 218 -293 185 -299 c 0
139 -306 90 -292 55 -262 c 0
20 -232 -1 -186 -1 -140 c 0
61 -140 l 0
60 -168 73 -196 94 -215 c 0
116 -234 145 -243 174 -240 c 0
200 -236 225 -221 243 -202 c 0
262 -182 274 -157 282 -131 c 0
298 -80 297 -25 298 29 c 0
298 460 l 0
Z
361 300 m 0
298 300 l 0
296 328 283 355 261 374 c 0
240 393 211 402 183 400 c 0
163 398 145 391 129 380 c 0
113 370 100 355 89 339 c 0
69 307 61 268 61 230 c 0
60 191 68 152 89 119 c 0
99 103 113 89 129 78 c 0
145 67 163 60 183 59 c 0
211 56 240 66 262 84 c 0
283 103 296 131 298 160 c 0
361 160 l 0
359 114 337 69 303 39 c 0
268 9 221 -4 176 0 c 0
123 5 74 37 44 80 c 0
13 123 -1 176 -1 230 c 0
0 282 13 336 44 379 c 0
75 422 123 453 176 459 c 0
221 463 268 449 302 419 c 0
337 389 359 345 361 300 c 0
Z
Spiro
298 460 v
361 460 v
361 30 ]
185 -299 c
-1 -140 v
61 -140 v
174 -240 c
298 29 [
361 300 v
298 300 v
183 400 c
61 230 c
183 59 c
298 160 v
361 160 v
176 0 c
-1 230 c
176 459 c
0 0 z
EndSpiro
EndSplineSet
        EndChar
StartChar: h
Encoding: 104 104 0
Width: 433
InSpiro: 1
        Flags: H
        LayerCount: 2
        Back
        SplineSet
34 30 m 0
30 30 l 0
30 634 l 0
34 634 l 0
34 30 l 0
Z
34 330 m 0
30 330 l 0
41 360 62 387 89 405 c 0
116 423 149 433 182 433 c 0
205 432 229 426 250 415 c 0
271 404 289 388 303 368 c 0
316 349 325 326 329 303 c 0
333 279 334 255 334 232 c 0
334 30 l 0
329 30 l 0
329 232 l 0
329 255 328 278 324 301 c 0
320 324 312 346 299 366 c 0
286 385 268 401 248 412 c 0
227 423 204 429 181 430 c 0
149 430 117 421 91 403 c 0
65 385 45 359 34 330 c 0
Z
Spiro
34 30 v
30 30 v
30 634 v
34 634 v
34 330 v
30 330 v
182 433 c
334 232 [
334 30 v
329 30 v
329 232 ]
181 430 c
0 0 z
EndSpiro
EndSplineSet
        Fore
        SplineSet
61 0 m 0
-1 0 l 0
-1 660 l 0
61 660 l 0
61 0 l 0
Z
61 300 m 0
-1 300 l 0
5 343 27 383 60 412 c 0
93 441 136 457 180 459 c 0
207 459 235 454 260 442 c 0
285 430 307 411 323 389 c 0
339 366 350 340 355 312 c 0
360 285 361 257 361 230 c 0
361 0 l 0
298 0 l 0
298 230 l 0
298 249 297 268 294 288 c 0
291 307 285 326 275 342 c 0
265 359 251 373 234 383 c 0
217 393 198 399 179 400 c 0
150 400 122 391 100 372 c 0
79 354 64 328 61 300 c 0
Z
Spiro
61 0 v
-1 0 v
-1 660 v
61 660 v
61 300 v
-1 300 v
180 459 c
361 230 [
361 0 v
298 0 v
298 230 ]
179 400 c
0 0 z
EndSpiro
EndSplineSet
        EndChar
StartChar: i
Encoding: 105 105 0
Width: 133
InSpiro: 1
        Flags: H
        LayerCount: 2
        Back
        SplineSet
30 434 m 0
34 434 l 0
34 30 l 0
30 30 l 0
30 434 l 0
Z
32 525 m 0
33 525 35 525 36 527 c 0
38 528 38 530 39 532 c 0
39 533 38 535 36 536 c 0
35 538 33 539 32 539 c 0
30 538 28 538 27 536 c 0
25 535 25 533 25 532 c 0
24 530 25 528 27 527 c 0
28 525 30 524 32 525 c 0
Z
Spiro
30 434 v
34 434 v
34 30 v
30 30 v
32 525 c
39 532 c
32 539 c
25 532 c
0 0 z
EndSpiro
EndSplineSet
        Fore
        SplineSet
-1 460 m 0
61 460 l 0
61 0 l 0
-1 0 l 0
-1 460 l 0
Z
30 495 m 0
39 495 48 498 54 505 c 0
61 511 64 520 65 530 c 0
65 539 61 548 54 554 c 0
48 561 39 565 30 565 c 0
20 564 11 561 5 554 c 0
-1 548 -4 539 -5 530 c 0
-5 520 -1 511 5 505 c 0
11 498 20 494 30 495 c 0
Z
Spiro
-1 460 v
61 460 v
61 0 v
-1 0 v
30 495 c
65 530 c
30 565 c
-5 530 c
0 0 z
EndSpiro
EndSplineSet
        EndChar
StartChar: m
Encoding: 109 109 0
Width: 613
InSpiro: 1
        Flags: H
        LayerCount: 2
        Back
        SplineSet
30 434 m 0
34 434 l 0
34 30 l 0
30 30 l 0
30 434 l 0
Z
34 30 m 0
30 30 l 0
30 334 l 0
30 334 l 0
31 369 51 402 80 422 c 0
110 441 149 445 182 433 c 0
200 426 216 414 229 399 c 0
243 384 252 367 259 348 c 0
273 311 273 271 274 232 c 0
274 30 l 0
269 30 l 0
269 232 l 0
269 270 268 309 255 346 c 0
249 364 239 381 227 396 c 0
214 411 198 422 181 430 c 0
148 442 109 438 81 418 c 0
52 399 34 364 34 330 c 0
34 30 l 0
Z
274 30 m 0
269 30 l 0
269 282 l 0
269 303 269 325 274 346 c 0
278 368 288 388 302 404 c 0
317 420 336 432 357 437 c 0
379 442 401 440 422 433 c 0
440 425 456 414 469 399 c 0
483 384 492 367 499 348 c 0
513 311 513 271 514 232 c 0
514 30 l 0
509 30 l 0
509 232 l 0
509 270 508 309 495 346 c 0
489 364 480 381 467 396 c 0
454 411 439 423 421 430 c 0
401 437 379 439 358 433 c 0
338 428 319 417 306 401 c 0
292 385 283 365 278 344 c 0
274 324 273 303 274 282 c 0
274 30 l 0
Z
Spiro
30 434 v
34 434 v
34 30 v
30 30 v
34 30 v
30 30 v
30 334 v
30 334 v
182 433 c
274 232 [
274 30 v
269 30 v
269 232 ]
181 430 c
34 330 v
274 30 v
269 30 v
269 282 ]
422 433 c
514 232 [
514 30 v
509 30 v
509 232 ]
421 430 c
274 282 [
0 0 z
EndSpiro
EndSplineSet
        Fore
        SplineSet
-1 460 m 0
61 460 l 0
61 0 l 0
-1 0 l 0
-1 460 l 0
Z
61 0 m 0
-1 0 l 0
-1 360 l 0
-1 360 l 0
9 398 37 432 73 451 c 0
109 469 153 471 191 457 c 0
233 440 265 404 282 362 c 0
299 321 301 275 301 230 c 0
301 0 l 0
238 0 l 0
238 230 l 0
238 262 238 296 228 328 c 0
224 344 216 359 206 372 c 0
196 385 183 396 168 402 c 0
154 407 140 408 126 406 c 0
112 404 99 398 88 388 c 0
77 379 69 367 64 354 c 0
59 341 58 326 61 313 c 0
61 0 l 0
Z
301 0 m 0
238 0 l 0
238 280 l 0
238 306 238 333 244 359 c 0
251 385 263 410 282 429 c 0
301 448 325 462 352 466 c 0
378 471 406 468 431 458 c 0
472 440 505 404 522 363 c 0
539 321 541 275 541 230 c 0
541 0 l 0
478 0 l 0
478 230 l 0
478 263 478 296 469 328 c 0
464 344 457 359 447 372 c 0
437 385 423 395 408 401 c 0
392 405 375 405 360 400 c 0
345 394 332 384 322 371 c 0
313 359 307 343 304 327 c 0
301 312 300 296 301 280 c 0
301 0 l 0
Z
Spiro
-1 460 v
61 460 v
61 0 v
-1 0 v
61 0 v
-1 0 v
-1 360 v
-1 360 v
191 457 c
301 230 [
301 0 v
238 0 v
238 230 ]
168 402 c
61 313 v
301 0 v
238 0 v
238 280 ]
431 458 c
541 230 [
541 0 v
478 0 v
478 230 ]
408 401 c
301 280 [
0 0 z
EndSpiro
EndSplineSet
        EndChar
StartChar: n
Encoding: 110 110 0
Width: 373
InSpiro: 1
        Flags: H
        LayerCount: 2
        Back
        SplineSet
30 434 m 0
34 434 l 0
34 30 l 0
30 30 l 0
30 434 l 0
Z
34 30 m 0
30 30 l 0
30 334 l 0
30 334 l 0
31 369 51 402 80 422 c 0
110 441 149 445 182 433 c 0
200 426 216 414 229 399 c 0
243 384 252 367 259 348 c 0
273 311 273 271 274 232 c 0
274 30 l 0
269 30 l 0
269 232 l 0
269 270 268 309 255 346 c 0
249 364 239 381 227 396 c 0
214 411 198 422 181 430 c 0
148 442 109 438 81 418 c 0
52 399 34 364 34 330 c 0
34 30 l 0
Z
Spiro
30 434 v
34 434 v
34 30 v
30 30 v
34 30 v
30 30 v
30 334 v
30 334 v
182 433 c
274 232 [
274 30 v
269 30 v
269 232 ]
181 430 c
34 330 v
0 0 z
EndSpiro
EndSplineSet
        Fore
        SplineSet
-1 460 m 0
61 460 l 0
61 0 l 0
-1 0 l 0
-1 460 l 0
Z
61 0 m 0
-1 0 l 0
-1 360 l 0
-1 360 l 0
9 398 37 432 73 451 c 0
109 469 153 471 191 457 c 0
233 440 265 404 282 362 c 0
299 321 301 275 301 230 c 0
301 0 l 0
238 0 l 0
238 230 l 0
238 262 238 296 228 328 c 0
224 344 216 359 206 372 c 0
196 385 183 396 168 402 c 0
154 407 140 408 126 406 c 0
112 404 99 398 88 388 c 0
77 379 69 367 64 354 c 0
59 341 58 326 61 313 c 0
61 0 l 0
Z
Spiro
-1 460 v
61 460 v
61 0 v
-1 0 v
61 0 v
-1 0 v
-1 360 v
-1 360 v
191 457 c
301 230 [
301 0 v
238 0 v
238 230 ]
168 402 c
61 313 v
0 0 z
EndSpiro
EndSplineSet
        EndChar
StartChar: q
Encoding: 113 113 0
Width: 433
InSpiro: 1
        Flags: H
        LayerCount: 2
        Back
        SplineSet
329 434 m 0
334 434 l 0
334 -270 l 0
329 -270 l 0
329 434 l 0
Z
334 330 m 0
329 330 l 0
320 361 300 388 273 407 c 0
247 425 214 433 182 430 c 0
137 425 96 397 70 360 c 0
45 322 34 277 34 232 c 0
33 186 44 140 70 103 c 0
96 65 136 37 182 33 c 0
214 29 247 37 274 56 c 0
300 74 320 102 329 134 c 0
334 134 l 0
325 101 304 72 276 53 c 0
249 34 214 26 181 30 c 0
135 35 93 63 67 101 c 0
41 139 29 185 30 232 c 0
30 277 41 324 67 362 c 0
94 399 135 427 181 433 c 0
214 436 248 428 276 409 c 0
304 391 325 362 334 330 c 0
Z
Spiro
329 434 v
334 434 v
334 -270 v
329 -270 v
334 330 v
329 330 v
182 430 c
34 232 c
182 33 c
329 134 v
334 134 v
181 30 c
30 232 c
181 433 c
0 0 z
EndSpiro
EndSplineSet
        Fore
        SplineSet
298 460 m 0
361 460 l 0
361 -300 l 0
298 -300 l 0
298 460 l 0
Z
361 300 m 0
298 300 l 0
296 328 283 355 261 374 c 0
240 393 211 402 183 400 c 0
163 398 145 391 129 380 c 0
113 370 100 355 89 339 c 0
69 307 61 268 61 230 c 0
60 191 68 152 89 119 c 0
99 103 113 89 129 78 c 0
145 67 163 60 183 59 c 0
211 56 240 66 262 84 c 0
283 103 296 131 298 160 c 0
361 160 l 0
359 114 337 69 303 39 c 0
268 9 221 -4 176 0 c 0
123 5 74 37 44 80 c 0
13 123 -1 176 -1 230 c 0
0 282 13 336 44 379 c 0
75 422 123 453 176 459 c 0
221 463 268 449 302 419 c 0
337 389 359 345 361 300 c 0
Z
Spiro
298 460 v
361 460 v
361 -300 v
298 -300 v
361 300 v
298 300 v
183 400 c
61 230 c
183 59 c
298 160 v
361 160 v
176 0 c
-1 230 c
176 459 c
0 0 z
EndSpiro
EndSplineSet
        EndChar
StartChar: u
Encoding: 117 117 0
Width: 373
InSpiro: 1
        Flags: H
        LayerCount: 2
        Back
        SplineSet
274 30 m 0
269 30 l 0
269 434 l 0
274 434 l 0
274 30 l 0
Z
269 134 m 0
274 134 l 0
273 108 263 84 246 65 c 0
229 46 206 34 182 30 c 0
157 26 132 30 111 41 c 0
89 52 71 70 58 90 c 0
45 111 37 135 34 159 c 0
30 183 29 207 30 232 c 0
30 434 l 0
34 434 l 0
34 232 l 0
34 208 34 184 37 160 c 0
41 137 48 114 61 93 c 0
73 73 90 56 111 44 c 0
132 33 157 29 181 33 c 0
204 36 227 49 243 67 c 0
259 85 268 109 269 134 c 0
Z
Spiro
274 30 v
269 30 v
269 434 v
274 434 v
269 134 v
274 134 v
182 30 c
30 232 [
30 434 v
34 434 v
34 232 ]
181 33 c
0 0 z
EndSpiro
EndSplineSet
        Fore
        SplineSet
301 0 m 0
238 0 l 0
238 460 l 0
301 460 l 0
301 0 l 0
Z
238 160 m 0
301 160 l 0
306 123 296 86 275 56 c 0
253 27 220 6 185 0 c 0
156 -5 127 -1 100 10 c 0
74 21 52 41 35 64 c 0
19 88 9 116 4 144 c 0
0 172 -1 201 -1 230 c 0
-1 460 l 0
61 460 l 0
61 230 l 0
60 191 62 150 79 115 c 0
88 98 101 82 118 72 c 0
134 62 154 56 174 59 c 0
196 61 217 75 230 94 c 0
242 113 245 138 238 160 c 0
Z
Spiro
301 0 v
238 0 v
238 460 v
301 460 v
238 160 v
301 160 v
185 0 c
-1 230 [
-1 460 v
61 460 v
61 230 ]
174 59 c
0 0 z
EndSpiro
EndSplineSet
        EndChar
StartChar: w
Encoding: 119 119 0
Width: 613
InSpiro: 1
        Flags: H
        LayerCount: 2
        Back
        SplineSet
30 434 m 0
34 434 l 0
152 38 l 0
269 434 l 0
274 434 l 0
392 38 l 0
509 434 l 0
514 434 l 0
394 30 l 0
389 30 l 0
272 425 l 0
154 30 l 0
149 30 l 0
30 434 l 0
Z
Spiro
30 434 v
34 434 v
152 38 v
269 434 v
274 434 v
392 38 v
509 434 v
514 434 v
394 30 v
389 30 v
272 425 v
154 30 v
149 30 v
0 0 z
EndSpiro
EndSplineSet
        Fore
        SplineSet
-1 460 m 0
61 460 l 0
150 134 l 0
238 460 l 0
301 460 l 0
390 134 l 0
478 460 l 0
541 460 l 0
421 0 l 0
358 0 l 0
270 325 l 0
181 0 l 0
118 0 l 0
-1 460 l 0
Z
Spiro
-1 460 v
61 460 v
150 134 v
238 460 v
301 460 v
390 134 v
478 460 v
541 460 v
421 0 v
358 0 v
270 325 v
181 0 v
118 0 v
0 0 z
EndSpiro
EndSplineSet
        EndChar
StartChar: x
Encoding: 120 120 0
Width: 433
InSpiro: 1
        Flags: H
        LayerCount: 2
        Back
        SplineSet
30 434 m 0
34 434 l 0
334 30 l 0
329 30 l 0
30 434 l 0
Z
329 434 m 0
334 434 l 0
34 30 l 0
30 30 l 0
329 434 l 0
Z
Spiro
30 434 v
34 434 v
334 30 v
329 30 v
329 434 v
334 434 v
34 30 v
30 30 v
0 0 z
EndSpiro
EndSplineSet
        Fore
        SplineSet
-1 460 m 0
61 460 l 0
361 0 l 0
298 0 l 0
-1 460 l 0
Z
298 460 m 0
361 460 l 0
61 0 l 0
-1 0 l 0
298 460 l 0
Z
Spiro
-1 460 v
61 460 v
361 0 v
298 0 v
298 460 v
361 460 v
61 0 v
-1 0 v
0 0 z
EndSpiro
EndSplineSet
        EndChar
StartChar: y
Encoding: 121 121 0
Width: 433
InSpiro: 1
        Flags: H
        LayerCount: 2
        Back
        SplineSet
329 434 m 0
334 434 l 0
334 32 l 0
334 -29 333 -92 311 -150 c 0
300 -178 284 -205 262 -227 c 0
240 -248 212 -264 182 -269 c 0
148 -274 113 -266 85 -247 c 0
57 -228 37 -198 30 -166 c 0
34 -166 l 0
40 -197 60 -226 87 -245 c 0
114 -263 148 -271 181 -266 c 0
210 -261 238 -245 260 -224 c 0
281 -203 297 -176 307 -148 c 0
328 -91 328 -29 329 31 c 0
329 434 l 0
Z
30 434 m 0
34 434 l 0
34 232 l 0
34 208 34 185 38 162 c 0
42 139 50 116 63 97 c 0
76 77 94 61 114 50 c 0
135 39 158 33 182 34 c 0
205 34 228 39 248 50 c 0
269 62 286 78 299 97 c 0
312 117 320 139 324 162 c 0
328 185 329 208 329 232 c 0
329 434 l 0
334 434 l 0
334 232 l 0
334 208 333 184 329 160 c 0
325 137 316 114 303 94 c 0
290 74 272 58 250 46 c 0
229 35 205 29 182 30 c 0
158 30 134 35 113 46 c 0
91 58 73 74 60 94 c 0
47 114 38 137 34 160 c 0
30 184 29 208 30 232 c 0
30 434 l 0
Z
Spiro
329 434 v
334 434 v
334 32 ]
182 -269 c
30 -166 v
34 -166 v
181 -266 c
329 31 [
30 434 v
34 434 v
34 232 ]
182 34 c
329 232 [
329 434 v
334 434 v
334 232 ]
182 30 c
30 232 [
0 0 z
EndSpiro
EndSplineSet
        Fore
        SplineSet
298 460 m 0
361 460 l 0
361 30 l 0
361 -38 359 -108 333 -171 c 0
320 -202 300 -231 275 -254 c 0
250 -277 218 -293 185 -299 c 0
139 -306 90 -292 55 -262 c 0
20 -232 -1 -186 -1 -140 c 0
61 -140 l 0
60 -168 73 -196 94 -215 c 0
116 -234 145 -243 174 -240 c 0
200 -236 225 -221 243 -202 c 0
262 -182 274 -157 282 -131 c 0
298 -80 297 -25 298 29 c 0
298 460 l 0
Z
-1 460 m 0
61 460 l 0
61 230 l 0
61 210 61 190 64 171 c 0
67 152 73 133 83 116 c 0
93 99 107 85 124 75 c 0
140 65 160 59 180 60 c 0
199 60 218 65 235 75 c 0
252 85 265 100 275 117 c 0
285 133 291 152 294 171 c 0
297 191 298 210 298 230 c 0
298 460 l 0
361 460 l 0
361 230 l 0
361 202 360 174 355 147 c 0
350 119 339 93 323 71 c 0
307 48 285 30 260 18 c 0
235 5 207 0 180 0 c 0
152 0 124 5 99 18 c 0
74 30 52 48 36 71 c 0
20 93 9 119 4 147 c 0
0 174 -1 202 -1 230 c 0
-1 460 l 0
Z
Spiro
298 460 v
361 460 v
361 30 ]
185 -299 c
-1 -140 v
61 -140 v
174 -240 c
298 29 [
-1 460 v
61 460 v
61 230 ]
180 60 c
298 230 [
298 460 v
361 460 v
361 230 ]
180 0 c
-1 230 [
0 0 z
EndSpiro
EndSplineSet
        EndChar
StartChar: z
Encoding: 122 122 0
Width: 433
InSpiro: 1
        Flags: H
        LayerCount: 2
        Back
        SplineSet
30 390 m 0
30 394 l 0
334 394 l 0
334 394 l 0
36 34 l 0
334 34 l 0
334 30 l 0
30 30 l 0
30 30 l 0
327 390 l 0
30 390 l 0
Z
Spiro
30 390 v
30 394 v
334 394 v
334 394 v
36 34 v
334 34 v
334 30 v
30 30 v
30 30 v
327 390 v
0 0 z
EndSpiro
EndSplineSet
        Fore
        SplineSet
-1 360 m 0
-1 420 l 0
361 420 l 0
361 420 l 0
95 59 l 0
361 60 l 0
361 0 l 0
-1 0 l 0
-1 0 l 0
264 360 l 0
-1 360 l 0
Z
Spiro
-1 360 v
-1 420 v
361 420 v
361 420 v
95 59 v
361 60 v
361 0 v
-1 0 v
-1 0 v
264 360 v
0 0 z
EndSpiro
EndSplineSet
        EndChar
StartChar: £
Encoding: 163 163 0
Width: 433
InSpiro: 1
        Flags: H
        LayerCount: 2
        Back
        SplineSet
334 530 m 0
329 530 l 0
331 548 328 566 321 583 c 0
313 599 301 614 286 624 c 0
271 634 253 640 235 641 c 0
217 642 198 638 183 630 c 0
159 617 141 595 130 570 c 0
119 546 113 519 111 492 c 0
106 439 109 385 109 332 c 0
109 30 l 0
104 30 l 0
104 332 l 0
103 386 101 440 107 494 c 0
109 521 115 548 127 572 c 0
138 597 156 619 180 633 c 0
196 642 215 646 234 646 c 0
253 645 272 639 288 628 c 0
304 618 317 603 325 585 c 0
333 568 336 548 334 530 c 0
Z
30 30 m 0
30 34 l 0
334 34 l 0
334 30 l 0
30 30 l 0
Z
30 330 m 0
30 334 l 0
184 334 l 0
184 330 l 0
30 330 l 0
Z
Spiro
334 530 v
329 530 v
183 630 c
109 332 [
109 30 v
104 30 v
104 332 ]
180 633 c
30 30 v
30 34 v
334 34 v
334 30 v
30 330 v
30 334 v
184 334 v
184 330 v
0 0 z
EndSpiro
EndSplineSet
        Fore
        SplineSet
361 500 m 0
298 500 l 0
304 514 307 530 304 546 c 0
301 561 294 576 282 587 c 0
271 599 256 606 241 609 c 0
225 612 209 609 195 603 c 0
172 592 156 571 147 549 c 0
138 526 135 501 134 477 c 0
132 428 136 379 136 330 c 0
136 0 l 0
73 0 l 0
73 330 l 0
73 388 71 448 80 506 c 0
85 535 92 564 106 590 c 0
119 616 138 640 164 656 c 0
187 670 214 677 242 675 c 0
269 674 295 664 317 647 c 0
338 630 354 606 362 580 c 0
370 554 369 525 361 500 c 0
Z
-1 0 m 0
-1 60 l 0
361 60 l 0
361 0 l 0
-1 0 l 0
Z
-1 300 m 0
-1 360 l 0
211 360 l 0
211 300 l 0
-1 300 l 0
Z
Spiro
361 500 v
298 500 v
195 603 c
136 330 [
136 0 v
73 0 v
73 330 ]
164 656 c
-1 0 v
-1 60 v
361 60 v
361 0 v
-1 300 v
-1 360 v
211 360 v
211 300 v
0 0 z
EndSpiro
EndSplineSet
        EndChar
